<?xml version="1.0" encoding="utf-8"?>
<!-- Generator: Adobe Illustrator 15.0.0, SVG Export Plug-In . SVG Version: 6.00 Build 0)  -->
<!DOCTYPE svg PUBLIC "-//W3C//DTD SVG 1.1//EN" "http://www.w3.org/Graphics/SVG/1.1/DTD/svg11.dtd">
<svg version="1.1" id="Layer_1" xmlns="http://www.w3.org/2000/svg" xmlns:xlink="http://www.w3.org/1999/xlink" x="0px" y="0px"
	 width="108px" height="54px" viewBox="0 0 216 108" enable-background="new 0 0 216 108" xml:space="preserve">
<path fill="#ac52ad" d="M137.86,51.772c8.738-2.229,15.746-9.479,15.746-19.321c0-11.932-9.826-20.433-23.215-20.433L13.112,11.923
	v40.584h48.486c-12.808,0.931-19.017,10.56-19.017,21.847C42.583,83,49.666,92.669,61.765,92.669h139.086V52.002L137.86,51.772z"/>
<g>
	<path fill="#FFFFFF" d="M18.983,46.517V17.714h6.961v22.801H38.81v6.002H18.983z"/>
	<path fill="#FFFFFF" d="M43.896,34.083V17.714h6.961v16.369c0,3.6,1.92,6.336,5.809,6.336c4.031,0,5.809-2.736,5.809-6.336V17.714
		h6.959v16.369c0,7.441-4.799,13.105-12.768,13.105C48.888,47.188,43.896,41.524,43.896,34.083z"/>
	<path fill="#FFFFFF" d="M100.489,43.636c0,0-3.072,3.553-9.842,3.553c-9.312,0-14.832-6.816-14.832-15.074
		c0-8.256,5.52-15.025,14.832-15.025c6.77,0,9.842,3.506,9.842,3.506l-3.984,5.328c0,0-1.92-2.16-5.762-2.16
		c-4.512,0-7.729,3.359-7.729,8.352s3.217,8.354,7.729,8.354c3.842,0,5.762-2.16,5.762-2.16L100.489,43.636z"/>
	<path fill="#FFFFFF" d="M113.255,46.517h-6.961V17.714h6.961V46.517z"/>
	<path fill="#FFFFFF" d="M132.696,46.517h-11.09V17.714h11.09c9.264,0,15.121,6.145,15.121,14.4
		C147.817,40.372,141.96,46.517,132.696,46.517z M128.567,23.714v16.801h3.6c4.656,0,8.449-3.119,8.449-8.4
		c0-5.568-3.793-8.4-8.449-8.4H128.567z"/>
</g>
<g>
	<path fill="#FFFFFF" d="M73.321,84.389c0,0-3.072,3.551-9.84,3.551c-9.314,0-14.834-6.816-14.834-15.072
		c0-8.258,5.52-15.025,14.834-15.025c6.768,0,9.84,3.504,9.84,3.504l-3.984,5.328c0,0-1.92-2.16-5.76-2.16
		c-4.514,0-7.729,3.361-7.729,8.354s3.215,8.352,7.729,8.352c3.84,0,5.76-2.16,5.76-2.16L73.321,84.389z"/>
	<path fill="#FFFFFF" d="M104.856,87.316h-6.961V75.604H86.087v11.713h-6.961V58.465h6.961v11.666h11.809V58.465h6.961V87.316z"/>
	<path fill="#FFFFFF" d="M139.368,87.268h-7.488l-1.777-5.184h-11.039l-1.777,5.184h-7.488l10.992-28.803h7.586L139.368,87.268z
		 M120.935,76.611h7.297l-3.648-10.656L120.935,76.611z"/>
	<path fill="#FFFFFF" d="M157.03,58.465c6.578,0,11.09,4.082,11.09,9.697c0,3.984-2.064,7.01-5.377,8.545v0.527l6.48,9.553v0.48
		h-7.92l-6-9.457h-4.033v9.457h-6.961V58.465H157.03z M156.552,64.467h-5.281v7.439h5.328c2.449,0,4.32-1.295,4.32-3.744
		C160.919,65.666,159.095,64.467,156.552,64.467z"/>
	<path fill="#FFFFFF" d="M173.062,58.465h23.186v6.002h-8.113v22.801h-6.959V64.467h-8.113V58.465z"/>
</g>
</svg>
